<svg width="30" height="30" viewBox="0 0 30 30" fill="none" xmlns="http://www.w3.org/2000/svg">
    <path
        d="M15 0C23.2843 0 30 6.71573 30 15C30 23.2843 23.2843 30 15 30C6.71573 30 0 23.2843 0 15C0 6.71573 6.71573 0 15 0ZM15 4.5C9.20101 4.5 4.5 9.20101 4.5 15C4.5 20.799 9.20101 25.5 15 25.5C20.799 25.5 25.5 20.799 25.5 15C25.5 9.20101 20.799 4.5 15 4.5ZM15 10.5C17.4853 10.5 19.5 12.5147 19.5 15C19.4999 17.4852 17.4852 19.5 15 19.5C12.5148 19.5 10.5001 17.4852 10.5 15C10.5 12.5147 12.5147 10.5 15 10.5Z"
        fill="#565656" />
</svg>