<svg width="20" height="20" viewBox="0 0 20 20" fill="none" xmlns="http://www.w3.org/2000/svg">
    <g clip-path="url(#clip0_1532_692)">
        <path
            d="M10.4275 2.917L10.4167 1.667H9.16667C6.88596 1.66452 4.68624 2.51233 2.99716 4.04485C1.30807 5.57736 0.250948 7.6845 0.0322592 9.9547C-0.186429 12.2249 0.449028 14.4951 1.81451 16.3218C3.18 18.1486 5.17743 19.4007 7.41667 19.8337C7.98737 19.9435 8.56716 19.9993 9.14833 20.0003C11.5799 19.9962 13.9109 19.0296 15.632 17.312C17.3531 15.5943 18.3243 13.2652 18.3333 10.8337V9.58366H10.4167L10.4275 2.917ZM15.7133 12.0837C15.484 13.2701 14.936 14.3718 14.128 15.2703C13.3199 16.1689 12.2825 16.8305 11.1269 17.184C9.97139 17.5376 8.74138 17.5698 7.5689 17.2772C6.39643 16.9846 5.32577 16.3783 4.47183 15.5232C3.61789 14.6682 3.01291 13.5968 2.72182 12.4239C2.43073 11.2511 2.46452 10.0211 2.81957 8.866C3.17462 7.71091 3.83752 6.6743 4.73712 5.86745C5.63672 5.06059 6.73906 4.51394 7.92583 4.28616L7.91667 12.0837H15.7133Z"
            fill="#707070" />
        <path
            d="M12.0833 0.00390625V7.91641H20C19.9897 5.82034 19.1522 3.81311 17.6696 2.33134C16.1871 0.849566 14.1794 0.0131071 12.0833 0.00390625Z"
            fill="#707070" />
    </g>
    <defs>
        <clipPath id="clip0_1532_692">
            <rect width="20" height="20" fill="white" />
        </clipPath>
    </defs>
</svg>