<svg width="20" height="20" viewBox="0 0 20 20" fill="none" xmlns="http://www.w3.org/2000/svg">
    <path
        d="M0 5.80003V14.2001C0 15.7001 0.400002 16.9001 1.00001 17.9001C1.30001 18.3001 1.70001 18.7001 2.10001 19.0001C2.90001 19.6001 4.00002 19.9001 5.20003 20.0001V0C1.90001 0.200001 0 2.40001 0 5.80003Z"
        fill="#E28400" />
    <path
        d="M19 2.10001C18.7 1.70001 18.3 1.30001 17.9 1.00001C16.9 0.300002 15.7 0 14.2 0H6.69995V20.0001H14.2C17.8 20.0001 20 17.8001 20 14.2001V5.80003C20 4.30002 19.6 3.10002 19 2.10001ZM13.5 12.0001C13.8 12.3001 13.8 12.8001 13.5 13.1001C13.4 13.2001 13.2 13.3001 13 13.3001C12.8 13.3001 12.6 13.2001 12.5 13.1001L9.89997 10.5001C9.59997 10.2001 9.59997 9.70005 9.89997 9.40005L12.5 6.80003C12.8 6.50003 13.3 6.50003 13.6 6.80003C13.9 7.10004 13.9 7.60004 13.6 7.90004L11.6 9.90005L13.5 12.0001Z"
        fill="#E28400" />
</svg>