<svg width="52" height="50" viewBox="0 0 52 50" fill="none" xmlns="http://www.w3.org/2000/svg">
    <path
        d="M51.9976 11.3727V38.6225C51.9976 44.9058 46.9373 50 40.6959 50H27.4546C24.4093 46.1806 18.0195 38.0915 18.3792 37.9105C18.8532 37.6731 43.8385 37.3575 43.8385 37.3575L3.95195 29.3394L12.0308 44.1889L2.27979 43.1099C1.17878 42.9875 0.294091 42.1238 0.155554 41.0179C0.0413216 40.1077 0 39.1485 0 38.6274V11.3775C0 5.0942 5.06025 0 11.3017 0H24.0738L30.9108 11.6809L11.4257 11.2258L48.1793 20.9665C48.1793 20.9665 37.0623 7.15685 37.5362 6.91951C37.721 6.82653 42.9829 6.95376 49.3022 7.14216C50.5466 7.17886 51.5917 8.09151 51.8153 9.32469C51.9368 9.99021 52 10.6778 52 11.3775L51.9976 11.3727Z"
        fill="#E28400" />
</svg>