<svg width="34" height="34" viewBox="0 0 34 34" fill="none" xmlns="http://www.w3.org/2000/svg">
    <g clip-path="url(#clip0_517_1677)">
        <path
            d="M22.0469 14.7031V22.4218L32.5584 27.6776C33.2207 28.0088 34 27.5272 34 26.7867V16.1974L22.0469 14.7031Z"
            fill="#E28400" />
        <path
            d="M19.1821 14.3452C18.561 14.2865 18.0625 14.7413 18.0625 15.3335V19.814C18.0625 20.1944 18.2736 20.5358 18.6131 20.705L20.0547 21.4258V14.4542L19.1821 14.3452Z"
            fill="#E28400" />
        <path
            d="M16.0703 19.8133V15.3322C16.0703 13.518 17.6726 12.1406 19.4292 12.3673L33.8546 14.1706C33.0884 9.70965 30.4937 5.56729 26.6032 2.9574C22.3776 0.122778 17.0389 -0.723503 12.074 0.640282C5.45348 2.45643 0 9.86152 0 16.983V21.7534C0 22.9216 0.687703 23.9897 1.78307 24.4878L23.7803 33.5557C26.7117 34.7707 30.1161 33.3926 31.3269 30.3408C31.4324 30.076 31.5442 29.7456 31.6535 29.4516L17.722 22.4858C16.7098 21.9797 16.0703 20.945 16.0703 19.8133ZM8.03516 22.0403C5.83771 22.0403 4.05078 20.2534 4.05078 18.0559C4.05078 15.8585 5.83771 14.0715 8.03516 14.0715C10.2326 14.0715 12.0195 15.8585 12.0195 18.0559C12.0195 20.2534 10.2326 22.0403 8.03516 22.0403Z"
            fill="#E28400" />
        <path
            d="M8.03516 16.0649C6.93693 16.0649 6.04297 16.9589 6.04297 18.0571C6.04297 19.1554 6.93693 20.0493 8.03516 20.0493C9.13338 20.0493 10.0273 19.1554 10.0273 18.0571C10.0273 16.9589 9.13338 16.0649 8.03516 16.0649Z"
            fill="#E28400" />
    </g>
    <defs>
        <clipPath id="clip0_517_1677">
            <rect width="34" height="34" fill="white" />
        </clipPath>
    </defs>
</svg>