<svg width="20" height="20" viewBox="0 0 20 20" fill="none" xmlns="http://www.w3.org/2000/svg">
    <g clip-path="url(#clip0_1532_14)">
        <path
            d="M19.9442 15.3009C19.0975 10.605 17.3933 5.77253 17.3133 5.55087C16.1067 2.26253 12.6733 0.0541992 8.77 0.0541992C3.91417 0.0541992 -0.0358315 4.00503 -0.0358315 8.86087C0.0416686 11.3492 0.755002 15.2225 0.972502 16.62C6.23917 17.0784 11.45 18.1725 17.1258 19.9459L20.0367 15.815L19.9442 15.3009ZM9.13 9.22087C9.13 9.68087 8.75667 10.0542 8.29667 10.0542C7.83667 10.0542 7.46334 9.68087 7.46334 9.22087C7.46334 8.76087 7.83667 8.38753 8.29667 8.38753C8.75667 8.38753 9.13 8.76087 9.13 9.22087ZM11.5117 8.38753H15.6142C15.9825 9.56503 16.4492 11.1517 16.8658 12.8617L11.105 11.0009C11.4333 10.485 11.63 9.8767 11.63 9.22087C11.63 8.9317 11.5817 8.65587 11.5117 8.38753ZM16.12 17.0325C11.5067 15.6775 7.33334 14.8092 3.12834 14.3292C2.86084 12.63 2.46334 9.8892 2.46334 8.86087C2.46334 5.38337 5.2925 2.5542 8.76917 2.5542C11.4025 2.5542 13.7058 3.87753 14.7175 5.88753H8.29667C6.45834 5.88753 4.96334 7.38253 4.96334 9.22087C4.96334 10.8192 6.08917 12.1717 7.59167 12.4942L17.1433 15.5792L16.12 17.0325Z"
            fill="#707070" />
    </g>
    <defs>
        <clipPath id="clip0_1532_14">
            <rect width="20" height="20" fill="white" />
        </clipPath>
    </defs>
</svg>