<svg width="20" height="20" viewBox="0 0 20 20" fill="none" xmlns="http://www.w3.org/2000/svg">
    <g clip-path="url(#clip0_1532_685)">
        <path
            d="M19.96 14.6111L10.5708 11.6211C11.2392 11.0111 11.6667 10.1411 11.6667 9.16694C11.6667 8.55694 11.49 7.99277 11.2033 7.50027H18.0733C18.695 9.09777 19.4825 11.4678 19.8892 14.0819C19.9175 14.2636 19.9408 14.4386 19.96 14.6111ZM6.66667 9.16694C6.66667 10.0861 7.41417 10.8336 8.33333 10.8336C9.2525 10.8336 10 10.0861 10 9.16694C10 8.24777 9.2525 7.50027 8.33333 7.50027C7.41417 7.50027 6.66667 8.24777 6.66667 9.16694ZM7.1925 12.2953C7.17917 12.2911 7.16667 12.2844 7.15333 12.2794C5.89667 11.8019 5 10.5894 5 9.16694C5 7.32861 6.495 5.83361 8.33333 5.83361H17.3717C17.2933 5.66361 17.235 5.54111 17.205 5.48027C16 2.25611 12.6067 0.0927734 8.74417 0.0927734C3.93417 0.0927734 0.0200005 4.00694 0.0200005 8.81694C0.0200005 9.76861 0.2925 12.3703 0.526667 13.9736C0.791667 15.7928 2.24167 17.2394 4.05083 17.4928C7.5 17.9753 10.9583 18.7311 14.9367 19.8719C15.2392 19.9586 15.5458 20.0011 15.8508 20.0011C16.935 20.0011 17.9767 19.4644 18.6267 18.5069L19.3725 17.2903C19.5842 16.9403 19.7258 16.6219 19.8233 16.3178L7.1925 12.2953Z"
            fill="white" />
    </g>
    <defs>
        <clipPath id="clip0_1532_685">
            <rect width="20" height="20" fill="white" />
        </clipPath>
    </defs>
</svg>