<svg width="20" height="20" viewBox="0 0 20 20" fill="none" xmlns="http://www.w3.org/2000/svg">
    <path
        d="M11.25 15.0002H8.75C7.60083 15.0002 6.66667 14.066 6.66667 12.9169V10.4169C6.66667 9.26769 7.60083 8.33352 8.75 8.33352H11.25C12.3992 8.33352 13.3333 9.26769 13.3333 10.4169V12.9169C13.3333 14.066 12.3992 15.0002 11.25 15.0002ZM9.16667 12.5002H10.8333V10.8335H9.16667V12.5002ZM15.4167 20.0002H4.58333C2.05667 20.0002 0 17.9435 0 15.4169V8.23852C0 6.71352 0.755 5.29352 2.02 4.43936L7.43667 0.784355C8.9925 -0.267311 11.0067 -0.267311 12.5642 0.784355L17.98 4.43936C19.245 5.29269 20 6.71352 20 8.23852V15.4169C20 17.9435 17.9433 20.0002 15.4167 20.0002ZM10 2.49769C9.595 2.49769 9.18833 2.61769 8.83583 2.85686L3.41833 6.51102C2.84417 6.89936 2.5 7.54436 2.5 8.23769V15.416C2.5 16.5652 3.43417 17.4994 4.58333 17.4994H15.4167C16.5658 17.4994 17.5 16.5652 17.5 15.416V8.23852C17.5 7.54519 17.1567 6.90019 16.5817 6.51186L11.165 2.85686C10.8108 2.61769 10.405 2.49769 10 2.49769Z"
        fill="#707070" />
</svg>