<svg width="16" height="16" viewBox="0 0 16 16" fill="none" xmlns="http://www.w3.org/2000/svg">
    <path
        d="M1.91852e-05 8.80443C0.171616 10.5023 0.881657 12.1008 2.02641 13.3664C3.17116 14.6321 4.69062 15.4985 6.36282 15.839C8.03502 16.1796 9.77231 15.9766 11.3209 15.2595C12.8695 14.5425 14.1482 13.349 14.9702 11.8535C15.7922 10.358 16.1145 8.63886 15.8899 6.94718C15.6653 5.25549 14.9056 3.67994 13.7219 2.45073C12.5381 1.22151 10.9923 0.403031 9.31032 0.114874C7.62829 -0.173284 5.89819 0.0839797 4.37279 0.849078L6.5248 5.13963C7.13496 4.83359 7.827 4.73069 8.49981 4.84595C9.17262 4.96121 9.79094 5.2886 10.2644 5.78029C10.7379 6.27198 11.0418 6.9022 11.1316 7.57887C11.2215 8.25555 11.0926 8.94322 10.7638 9.54142C10.435 10.1396 9.92347 10.617 9.30404 10.9038C8.68461 11.1906 7.98969 11.2719 7.32081 11.1356C6.65193 10.9994 6.04415 10.6528 5.58625 10.1466C5.12835 9.64033 4.84433 9.00092 4.77569 8.32177L1.91852e-05 8.80443Z"
        fill="#E28400" />
</svg>