<svg width="30" height="30" viewBox="0 0 30 30" fill="none" xmlns="http://www.w3.org/2000/svg">
    <path
        d="M26.2387 8.12505H26.25L15.625 6.76255L13.8562 2.3738C13.31 0.82755 14.9725 -0.56995 16.4013 0.2338L29.0862 6.5363C30.3037 7.24255 30.3037 9.0013 29.0862 9.7088L16.4013 16.0138C14.9725 16.8175 13.31 15.42 13.8562 13.8738L15.625 9.4838L26.2387 8.12255V8.12505ZM3.125 26.25H1.875C0.83875 26.25 0 27.09 0 28.125C0 29.16 0.83875 30 1.875 30H3.125C4.16125 30 5 29.16 5 28.125C5 27.09 4.16125 26.25 3.125 26.25ZM24.375 18.75H8.125C5.7125 18.75 3.75 16.7875 3.75 14.375C3.75 11.9625 5.7125 10 8.125 10H9.375C10.4113 10 11.25 9.16005 11.25 8.12505C11.25 7.09005 10.4113 6.25005 9.375 6.25005H8.125C3.645 6.25005 0 9.89505 0 14.375C0 18.855 3.645 22.5 8.125 22.5H24.375C25.4088 22.5 26.25 23.3413 26.25 24.375C26.25 25.4088 25.4088 26.25 24.375 26.25H16.875C15.8387 26.25 15 27.09 15 28.125C15 29.16 15.8387 30 16.875 30H24.375C27.4762 30 30 27.4763 30 24.375C30 21.2738 27.4762 18.75 24.375 18.75ZM10.625 26.25H9.375C8.33875 26.25 7.5 27.09 7.5 28.125C7.5 29.16 8.33875 30 9.375 30H10.625C11.6613 30 12.5 29.16 12.5 28.125C12.5 27.09 11.6613 26.25 10.625 26.25Z"
        fill="#565656" />
</svg>