<svg width="25" height="30" viewBox="0 0 25 30" fill="none" xmlns="http://www.w3.org/2000/svg">
    <path
        d="M18.75 15.625C18.75 16.1223 18.5525 16.5992 18.2008 16.9509C17.8492 17.3025 17.3723 17.5 16.875 17.5H8.125C7.62772 17.5 7.15081 17.3025 6.79917 16.9509C6.44754 16.5992 6.25 16.1223 6.25 15.625C6.25 15.1277 6.44754 14.6508 6.79917 14.2992C7.15081 13.9476 7.62772 13.75 8.125 13.75H16.875C17.3723 13.75 17.8492 13.9476 18.2008 14.2992C18.5525 14.6508 18.75 15.1277 18.75 15.625ZM13.125 20H8.125C7.62772 20 7.15081 20.1976 6.79917 20.5492C6.44754 20.9008 6.25 21.3777 6.25 21.875C6.25 22.3723 6.44754 22.8492 6.79917 23.2009C7.15081 23.5525 7.62772 23.75 8.125 23.75H13.125C13.6223 23.75 14.0992 23.5525 14.4508 23.2009C14.8025 22.8492 15 22.3723 15 21.875C15 21.3777 14.8025 20.9008 14.4508 20.5492C14.0992 20.1976 13.6223 20 13.125 20ZM25 10.1963V23.125C24.998 24.9478 24.273 26.6953 22.9842 27.9842C21.6953 29.2731 19.9478 29.998 18.125 30H6.875C5.05225 29.998 3.30472 29.2731 2.01583 27.9842C0.726951 26.6953 0.00198521 24.9478 0 23.125V6.87503C0.00198521 5.05227 0.726951 3.30474 2.01583 2.01586C3.30472 0.726979 5.05225 0.00201298 6.875 2.77637e-05H14.8038C15.707 -0.00254793 16.6017 0.174115 17.4362 0.519783C18.2706 0.865452 19.0282 1.37325 19.665 2.01378L22.9862 5.33503C23.6267 5.97192 24.1344 6.72951 24.4801 7.56395C24.8257 8.39838 25.0024 9.29309 25 10.1963ZM21.25 23.125V11.25H16.25C15.587 11.25 14.9511 10.9866 14.4822 10.5178C14.0134 10.049 13.75 9.41307 13.75 8.75003V3.75003H6.875C6.0462 3.75003 5.25134 4.07927 4.66529 4.66532C4.07924 5.25137 3.75 6.04623 3.75 6.87503V23.125C3.75 23.9538 4.07924 24.7487 4.66529 25.3347C5.25134 25.9208 6.0462 26.25 6.875 26.25H18.125C18.9538 26.25 19.7487 25.9208 20.3347 25.3347C20.9208 24.7487 21.25 23.9538 21.25 23.125Z"
        fill="#565656" />
</svg>