<svg width="181" height="35" viewBox="0 0 181 35" fill="none" xmlns="http://www.w3.org/2000/svg">
    <path
        d="M21.6757 8.15061L8.01203 7.83315L33.7848 14.6299C33.7667 14.6075 25.9899 4.9939 26.3215 4.82817C26.4511 4.76329 30.1411 4.85211 34.5724 4.98357C35.445 5.00918 36.1777 5.64601 36.3345 6.50648C36.4197 6.97087 36.4642 7.45073 36.4642 7.93902L36.4623 7.93552V26.95C36.4623 31.3344 32.9139 34.889 28.5372 34.889H19.2521C17.1166 32.2239 12.6359 26.5793 12.8882 26.453C13.2228 26.2874 30.741 26.0673 30.741 26.0673L2.77121 20.4724L8.43644 30.8341L1.59864 30.081C0.82658 29.9957 0.206164 29.3932 0.109017 28.6215C0.0289201 27.9863 4.42785e-06 27.3171 0 26.9534V7.93902C0 3.55463 3.54842 0 7.92514 0H16.8814L21.6757 8.15061ZM52.3932 8.19278C53.9567 8.1928 55.3054 8.46689 56.4389 9.01509C57.5727 9.56331 58.4424 10.3368 59.0483 11.3353C59.6738 12.3339 59.9865 13.5184 59.9865 14.889H55.2664C55.2664 14.1254 55.0024 13.5282 54.4747 13.0975C53.947 12.6472 53.2336 12.4221 52.3344 12.4221C51.3767 12.4221 50.6048 12.6276 50.0185 13.0388C49.4517 13.45 49.1681 14.0177 49.1681 14.7421C49.1681 15.4078 49.3441 15.9169 49.6959 16.2694C50.0477 16.6218 50.6048 16.8764 51.3672 17.033L54.6213 17.7085C56.5564 18.1 57.9929 18.7854 58.931 19.7644C59.8692 20.7238 60.3383 22.0648 60.3383 23.7879C60.3383 25.178 59.9964 26.4018 59.3123 27.4591C58.6282 28.4968 57.6606 29.2996 56.4098 29.8675C55.1784 30.4351 53.7319 30.7191 52.0707 30.7191C50.468 30.7191 49.0607 30.4449 47.8489 29.8967C46.6568 29.3484 45.7282 28.575 45.0637 27.5766C44.4188 26.5583 44.0962 25.3738 44.0962 24.0228H48.8165C48.8165 24.806 49.0997 25.4129 49.6666 25.8437C50.2335 26.2744 51.0446 26.4899 52.0999 26.4899C53.175 26.4899 54.0251 26.294 54.6506 25.9026C55.2761 25.4914 55.5888 24.943 55.5888 24.2577C55.5888 23.6508 55.4325 23.1809 55.1198 22.848C54.8266 22.5152 54.3184 22.2803 53.5953 22.1432L50.2822 21.4676C48.3473 21.0761 46.8814 20.3321 45.8847 19.2357C44.9074 18.1392 44.4186 16.7001 44.4186 14.9183C44.4186 13.6065 44.7609 12.4514 45.445 11.4529C46.1289 10.4347 47.0672 9.64176 48.2593 9.07396C49.4711 8.48658 50.8491 8.19278 52.3932 8.19278ZM137.67 15.1828C139.214 15.1828 140.543 15.5057 141.657 16.1518C142.771 16.7784 143.631 17.6791 144.237 18.8539C144.843 20.0091 145.146 21.3894 145.146 22.995V24.1404L134.493 24.19C134.61 24.9883 134.858 25.6179 135.236 26.0788C135.803 26.7248 136.673 27.048 137.846 27.048C138.706 27.048 139.419 26.901 139.986 26.6073C140.553 26.3137 140.914 25.9026 141.071 25.3738H145.205C144.95 26.999 144.149 28.301 142.8 29.28C141.452 30.2393 139.771 30.7191 137.758 30.7191C136.292 30.7191 134.982 30.3861 133.829 29.7205C132.695 29.0548 131.796 28.1443 131.132 26.9891C130.487 25.8143 130.165 24.4732 130.165 22.9656C130.165 21.4384 130.477 20.0972 131.102 18.942C131.748 17.7674 132.637 16.847 133.771 16.1813C134.904 15.5156 136.204 15.1828 137.67 15.1828ZM180.963 30.3371H176.71L176.477 28.4577C176.085 29.1234 175.459 29.6716 174.6 30.1022C173.76 30.5135 172.811 30.7191 171.756 30.7191C170.349 30.7191 169.127 30.4058 168.091 29.7792C167.055 29.1526 166.244 28.2716 165.658 27.1359C165.091 25.9808 164.808 24.6299 164.808 23.0831C164.808 21.5168 165.101 20.1462 165.687 18.9714C166.274 17.7771 167.104 16.847 168.179 16.1813C169.274 15.5156 170.564 15.1828 172.049 15.1828C172.967 15.1828 173.818 15.3492 174.6 15.682C175.401 16.0148 176.017 16.4554 176.448 17.0036V8.19278H180.963V30.3371ZM67.6202 20.4398C67.7961 21.0662 67.9621 21.7321 68.1185 22.4369C68.2748 23.1417 68.4117 23.8662 68.529 24.6103C68.6266 24.0815 68.7147 23.641 68.7929 23.2887C68.871 22.9166 68.9687 22.5251 69.0859 22.1139C69.2034 21.6831 69.3695 21.1251 69.5844 20.4398L71.0797 15.6526H75.7119L77.0898 20.4398C77.129 20.5573 77.1876 20.8021 77.2659 21.1741C77.3635 21.5265 77.4709 21.9279 77.5882 22.3781C77.7054 22.8089 77.8032 23.2299 77.8815 23.641C77.9791 24.0522 78.0476 24.3752 78.0867 24.6103C78.1453 24.2577 78.243 23.7879 78.3798 23.2006C78.5361 22.5936 78.6828 22.0256 78.8197 21.497C78.976 20.9684 79.0736 20.616 79.1128 20.4398L80.5199 15.6526H85.2987L80.1682 30.3371H75.9757L74.5684 25.6676C74.1972 24.4537 73.9138 23.4355 73.7183 22.6131C73.5228 21.7908 73.4056 21.2231 73.3665 20.9099C73.3079 21.2231 73.1905 21.7224 73.0146 22.4075C72.8387 23.0928 72.5162 24.2089 72.047 25.7556L70.6399 30.3371H66.2422L61.5221 15.6526H66.2716L67.6202 20.4398ZM91.8091 30.3371H87.294V15.6526H91.8091V30.3371ZM101.529 8.19278C101.842 8.19278 102.164 8.21248 102.496 8.25165C102.848 8.27122 103.2 8.31028 103.552 8.36903V12.2458H102.291C101.509 12.2458 100.991 12.4612 100.737 12.8919C100.483 13.3227 100.356 13.8513 100.356 14.4778V15.6526H105.751V11.1004H110.266V15.6526H113.051V19.4119H110.266V30.3371H105.751V19.4119H100.356V30.3371H95.8412V19.4119H93.8183V15.6526H95.8412V14.4778C95.8412 13.0094 96.0757 11.815 96.5447 10.8948C97.0138 9.97457 97.6785 9.29912 98.5385 8.86839C99.3985 8.41806 100.395 8.19278 101.529 8.19278ZM122.147 20.1168L124.668 15.6526H129.711L124.874 23.1418L129.535 30.3371H124.346L121.825 26.1081L119.362 30.3371H114.231L119.157 23.2299L114.231 15.6526H119.45L122.147 20.1168ZM156.849 15.1828C158.589 15.1828 159.938 15.7212 160.895 16.7981C161.873 17.8553 162.361 19.3434 162.361 21.2621V30.3371H157.846V22.3488C157.846 21.4287 157.612 20.6944 157.143 20.1462C156.674 19.5783 156.048 19.2944 155.266 19.2944C154.367 19.2944 153.654 19.5686 153.126 20.1168C152.598 20.6454 152.335 21.3698 152.335 22.29V30.3371H147.819V15.6526H152.071L152.364 17.1799C152.813 16.5533 153.429 16.0638 154.211 15.7113C155.012 15.3589 155.892 15.1828 156.849 15.1828ZM172.841 19.2357C172.137 19.2357 171.522 19.3922 170.994 19.7055C170.466 20.0188 170.056 20.4496 169.762 20.9978C169.489 21.546 169.352 22.1825 169.352 22.9069C169.352 23.6313 169.489 24.2676 169.762 24.8159C170.056 25.3641 170.466 25.7948 170.994 26.1081C171.522 26.4214 172.137 26.578 172.841 26.578C173.545 26.578 174.161 26.4311 174.687 26.1375C175.234 25.8242 175.655 25.3934 175.948 24.845C176.262 24.2774 176.417 23.6313 176.417 22.9069C176.417 22.1629 176.262 21.5166 175.948 20.9684C175.655 20.4202 175.234 19.9992 174.687 19.7055C174.161 19.3922 173.545 19.2357 172.841 19.2357ZM137.699 18.8539C136.937 18.8539 136.311 19.0007 135.823 19.2944C135.354 19.588 135.002 20.0482 134.767 20.6748C134.682 20.896 134.612 21.1409 134.558 21.4091H140.66C140.66 20.6258 140.396 20.0091 139.869 19.5589C139.341 19.0888 138.618 18.8539 137.699 18.8539ZM89.5222 8.22213C90.2258 8.22213 90.8219 8.46696 91.3106 8.95641C91.8186 9.44588 92.0728 10.0529 92.0729 10.7773C92.0729 11.5017 91.8188 12.1186 91.3106 12.6276C90.8219 13.1171 90.2258 13.3618 89.5222 13.3618C88.7991 13.3617 88.1833 13.1171 87.6752 12.6276C87.1866 12.1186 86.9422 11.5017 86.9422 10.7773C86.9422 10.0529 87.1866 9.44588 87.6752 8.95641C88.1833 8.46694 88.7991 8.22215 89.5222 8.22213Z"
        fill="#E28400" />
</svg>